<?xml version="1.0" encoding="UTF-8" standalone="no"?>
<!-- Created with Inkscape (http://www.inkscape.org/) -->

<svg
   xmlns:dc="http://purl.org/dc/elements/1.1/"
   xmlns:cc="http://creativecommons.org/ns#"
   xmlns:rdf="http://www.w3.org/1999/02/22-rdf-syntax-ns#"
   xmlns:svg="http://www.w3.org/2000/svg"
   xmlns="http://www.w3.org/2000/svg"
   xmlns:sodipodi="http://sodipodi.sourceforge.net/DTD/sodipodi-0.dtd"
   xmlns:inkscape="http://www.inkscape.org/namespaces/inkscape"
   width="40000"
   height="2000"
   id="svg3012"
   version="1.1"
   inkscape:version="0.92.4 (5da689c313, 2019-01-14)"
   sodipodi:docname="glyphs.svg">
  <defs
     id="defs3014" />
  <sodipodi:namedview
     id="base"
     pagecolor="#ffffff"
     bordercolor="#666666"
     borderopacity="1.0"
     inkscape:pageopacity="0.0"
     inkscape:pageshadow="2"
     inkscape:zoom="0.098429263"
     inkscape:cx="-1064.3545"
     inkscape:cy="-516.15257"
     inkscape:document-units="px"
     inkscape:current-layer="layer1"
     showgrid="true"
     inkscape:window-width="1280"
     inkscape:window-height="974"
     inkscape:window-x="0"
     inkscape:window-y="26"
     inkscape:window-maximized="1"
     showguides="true"
     inkscape:guide-bbox="true"
     inkscape:snap-nodes="true"
     inkscape:object-paths="true"
     inkscape:object-nodes="true">
    <inkscape:grid
       type="xygrid"
       id="grid2982"
       empspacing="5"
       visible="true"
       enabled="true"
       snapvisiblegridlinesonly="true" />
    <sodipodi:guide
       orientation="1,0"
       position="1000,1000"
       id="guide2984"
       inkscape:locked="false" />
    <sodipodi:guide
       orientation="0,1"
       position="0,500"
       id="guide2986"
       inkscape:locked="false" />
    <sodipodi:guide
       orientation="0,1"
       position="0,620"
       id="guide2988"
       inkscape:locked="false" />
    <sodipodi:guide
       orientation="0,1"
       position="0,380"
       id="guide2990"
       inkscape:locked="false" />
    <sodipodi:guide
       orientation="0,1"
       position="0,800"
       id="guide2992"
       inkscape:locked="false" />
    <sodipodi:guide
       orientation="0,1"
       position="0,200"
       id="guide2994"
       inkscape:locked="false" />
    <sodipodi:guide
       orientation="1,0"
       position="2000,1000"
       id="guide3859"
       inkscape:locked="false" />
    <sodipodi:guide
       orientation="1,0"
       position="3000,1000"
       id="guide3880"
       inkscape:locked="false" />
    <sodipodi:guide
       orientation="1,0"
       position="4000,1000"
       id="guide4103"
       inkscape:locked="false" />
    <sodipodi:guide
       orientation="1,0"
       position="5000,1000"
       id="guide4173"
       inkscape:locked="false" />
    <sodipodi:guide
       orientation="1,0"
       position="6000,1000"
       id="guide4214"
       inkscape:locked="false" />
    <sodipodi:guide
       orientation="1,0"
       position="7000,1000"
       id="guide4216"
       inkscape:locked="false" />
    <sodipodi:guide
       orientation="1,0"
       position="8000,1000"
       id="guide4258"
       inkscape:locked="false" />
    <sodipodi:guide
       orientation="1,0"
       position="9000,1000"
       id="guide4260"
       inkscape:locked="false" />
    <sodipodi:guide
       orientation="1,0"
       position="10000,1000"
       id="guide4445"
       inkscape:locked="false" />
    <sodipodi:guide
       orientation="1,0"
       position="11000,1000"
       id="guide4491"
       inkscape:locked="false" />
    <sodipodi:guide
       orientation="1,0"
       position="12000,1000"
       id="guide4575"
       inkscape:locked="false" />
    <sodipodi:guide
       orientation="1,0"
       position="13000,1000"
       id="guide4639"
       inkscape:locked="false" />
    <sodipodi:guide
       orientation="1,0"
       position="14000,1000"
       id="guide4704"
       inkscape:locked="false" />
    <sodipodi:guide
       orientation="1,0"
       position="15000,1000"
       id="guide4816"
       inkscape:locked="false" />
    <sodipodi:guide
       orientation="1,0"
       position="16000,1000"
       id="guide4898"
       inkscape:locked="false" />
    <sodipodi:guide
       orientation="1,0"
       position="17000,1000"
       id="guide5001"
       inkscape:locked="false" />
    <sodipodi:guide
       orientation="1,0"
       position="18000,1000"
       id="guide5110"
       inkscape:locked="false" />
    <sodipodi:guide
       orientation="1,0"
       position="19000,1000"
       id="guide5204"
       inkscape:locked="false" />
    <sodipodi:guide
       orientation="1,0"
       position="20000,1000"
       id="guide5257"
       inkscape:locked="false" />
    <sodipodi:guide
       orientation="1,0"
       position="21000,1000"
       id="guide5292"
       inkscape:locked="false" />
    <sodipodi:guide
       orientation="1,0"
       position="22000,1000"
       id="guide5356"
       inkscape:locked="false" />
    <sodipodi:guide
       orientation="1,0"
       position="23000,1000"
       id="guide5413"
       inkscape:locked="false" />
    <sodipodi:guide
       orientation="1,0"
       position="24000,1000"
       id="guide5477"
       inkscape:locked="false" />
    <sodipodi:guide
       orientation="1,0"
       position="25000,1000"
       id="guide5501"
       inkscape:locked="false" />
    <sodipodi:guide
       orientation="1,0"
       position="26000,1000"
       id="guide5565"
       inkscape:locked="false" />
    <sodipodi:guide
       orientation="1,0"
       position="27000,1000"
       id="guide5647"
       inkscape:locked="false" />
    <sodipodi:guide
       orientation="1,0"
       position="28000,1000"
       id="guide5686"
       inkscape:locked="false" />
    <sodipodi:guide
       orientation="1,0"
       position="29000,1000"
       id="guide5730"
       inkscape:locked="false" />
    <sodipodi:guide
       orientation="1,0"
       position="30000,1000"
       id="guide5750"
       inkscape:locked="false" />
    <sodipodi:guide
       orientation="1,0"
       position="31000,1000"
       id="guide5792"
       inkscape:locked="false" />
    <sodipodi:guide
       orientation="1,0"
       position="32000,1000"
       id="guide5852"
       inkscape:locked="false" />
    <sodipodi:guide
       orientation="1,0"
       position="33000,1000"
       id="guide5876"
       inkscape:locked="false" />
    <sodipodi:guide
       orientation="1,0"
       position="34000,1000"
       id="guide5918"
       inkscape:locked="false" />
    <sodipodi:guide
       orientation="1,0"
       position="35000,1000"
       id="guide5963"
       inkscape:locked="false" />
    <sodipodi:guide
       orientation="1,0"
       position="36000,1000"
       id="guide3062"
       inkscape:locked="false" />
    <sodipodi:guide
       orientation="1,0"
       position="37000,1000"
       id="guide3064"
       inkscape:locked="false" />
    <sodipodi:guide
       orientation="1,0"
       position="38000,1000"
       id="guide3066"
       inkscape:locked="false" />
    <sodipodi:guide
       orientation="0,1"
       position="0,1000"
       id="guide3103"
       inkscape:locked="false" />
    <sodipodi:guide
       orientation="0,1"
       position="0,1500"
       id="guide3105"
       inkscape:locked="false" />
    <sodipodi:guide
       orientation="0,1"
       position="0,1200"
       id="guide3107"
       inkscape:locked="false" />
    <sodipodi:guide
       orientation="0,1"
       position="0,1800"
       id="guide3109"
       inkscape:locked="false" />
    <sodipodi:guide
       orientation="0,1"
       position="0,1620"
       id="guide3111"
       inkscape:locked="false" />
    <sodipodi:guide
       orientation="0,1"
       position="0,1380"
       id="guide3113"
       inkscape:locked="false" />
    <sodipodi:guide
       orientation="1,0"
       position="39000,1000"
       id="guide3092"
       inkscape:locked="false" />
  </sodipodi:namedview>
  <metadata
     id="metadata3017">
    <rdf:RDF>
      <cc:Work
         rdf:about="">
        <dc:format>image/svg+xml</dc:format>
        <dc:type
           rdf:resource="http://purl.org/dc/dcmitype/StillImage" />
        <dc:title />
      </cc:Work>
    </rdf:RDF>
  </metadata>
  <g
     inkscape:label="レイヤー 1"
     inkscape:groupmode="layer"
     id="layer1"
     transform="translate(0,947.63782)">
    <path
       id="path2998-3"
       style="fill:#000000;fill-opacity:1;stroke:none"
       d="M 95.999998,552.36217 C 96,586.76218 125.6,616.36218 160,616.36217 c 34.4,0 64,-29.59999 63.99998,-63.99999 1e-5,-34.40001 -29.59998,-64 -63.99999,-64.00001 -34.39999,0 -63.999992,29.6 -63.999992,64 z m -32.000002,0 c 3e-6,-52 44.000004,-95.99998 96.000004,-95.99999 52,0 95.99999,43.99999 96,96 0,52 -44,95.99999 -96,95.99999 -52,0 -96.000004,-44 -96.000004,-96 z"
       inkscape:connector-curvature="0"
       sodipodi:nodetypes="ssssssssss" />
    <path
       style="fill:#000000;fill-opacity:1;stroke:none"
       d="m 1200,456.36218 c -52,0 -96,44 -96,96 0,52 44,96 96,96 l 0,-32 c -34.4,0 -64,-29.6 -64,-64 0,-34.4 29.6,-64 64,-64 34.4,0 64,29.6 64,64 l 0,304 c 0,52 44,96 96,96 32.922,0 62.6273,-17.63738 80,-43.775 17.3727,26.13762 47.078,43.775 80,43.775 52,0 96,-43.99998 96,-96 0,-52 -44,-96 -96,-96 l 0,32 c 34.4,0 64,29.6 64,64 0,34.4 -29.6,64 -64,64 -34.4,0 -64,-29.6 -64,-64 l -32,0 c 0,34.4 -29.6,64 -64,64 -34.4,0 -64,-29.6 -64,-64 l 0,-304 c 0,-52 -44,-96 -96,-96 z"
       id="p"
       inkscape:connector-curvature="0" />
    <path
       style="fill:#000000;fill-opacity:1;stroke:none"
       d="m 3365.25,456.63718 c -24.7487,0 -49.4902,9.21522 -67.875,27.6 -36.7696,36.76955 -36.7696,98.98045 0,135.75 29.9846,29.98463 76.8931,35.51877 113.125,16.6 l 0,219.975 c 0,34.4 -29.6,64 -64,64 -34.4,0 -64,-29.6 -64,-64 l -32,0 c 0,34.4 -29.6,64 -64,64 -34.4,0 -64,-29.6 -64,-64 0,-34.40002 29.6,-64 64,-64 l 0,-32 c -52,0 -96,43.99998 -96,96 0,52 44,96 96,96 32.922,0 62.6273,-17.63743 80,-43.775 17.3727,26.13757 47.078,43.775 80,43.775 52,0 96,-44 96,-96 l 0,-259.2 -32,0 c -24.3244,24.32447 -66.1756,24.32447 -90.5,0 -24.3245,-24.32448 -24.3245,-66.17553 0,-90.5 24.3244,-24.32447 66.1756,-24.32447 90.5,0 l 22.625,-22.625 c -18.3848,-18.38478 -43.1263,-27.6 -67.875,-27.6 z"
       id="t"
       inkscape:connector-curvature="0" />
    <path
       style="fill:#000000;fill-opacity:1;stroke:none"
       d="m 2160,456.36218 c -52,10e-6 -96,44 -96,96 0,52 44,96 96,96 24.3072,0 46.8659,-9.62355 64,-25.175 l 0,233.175 c 0,34.4 -29.6,64 -64,64 -34.4,0 -64,-29.6 -64,-64 0,-34.4 29.6,-64 64,-64 l 0,-32 c -52,0 -96,44 -96,96 0,52 44,96 96,96 52,0 96,-44 96,-96 l 0,-304 c 0,-52 -44,-96 -96,-96 z m 0,32 c 34.4,10e-6 64,29.6 64,64 0,34.4 -29.6,64 -64,64 -34.4,1e-5 -64,-29.59999 -64,-64 0,-34.4 29.6,-64 64,-64 z"
       id="p_"
       inkscape:connector-curvature="0" />
    <path
       style="fill:#000000;fill-opacity:1;stroke:none"
       d="m 4196.4622,456.63718 c -24.7487,0 -49.4902,9.21522 -67.8749,27.6 -36.7695,36.76956 -36.7696,98.98044 0,135.75 29.9025,29.9026 76.6341,35.4836 112.8249,16.75 l 0,42.85 c -36.2327,-15.13779 -83.1388,-10.71393 -113.1249,13.275 -36.7695,29.41565 -36.7696,79.18432 0,108.6 4.2893,3.43148 8.8853,6.43905 13.7499,9.025 -4.862,2.58508 -9.4627,5.57021 -13.7499,9 -36.7696,29.41571 -36.7695,79.20937 0,108.625 36.7695,29.41568 98.9804,29.41568 135.7499,0 l -22.625,-18.1 c -24.3244,19.45963 -66.1755,19.45963 -90.5,0 -24.3244,-19.45955 -24.3244,-52.96542 0,-72.425 11.7279,-9.38228 27.368,-14.28447 43.3,-14.625 0.2744,0.002 0.5505,-8e-4 0.825,0 0.7887,-0.009 1.5858,-0.0133 2.375,0 l 0,-24.95 c -17.0153,0.28592 -33.9903,-4.64223 -46.5,-14.65 -24.3244,-19.45959 -24.3244,-52.94042 0,-72.4 24.3245,-19.45958 66.1756,-19.45959 90.5,0 l 32,0 0,-113.6 -31.7,0 -0.3,0 0,0.3 c -24.3675,24.02462 -65.9757,23.92425 -90.2,-0.3 -24.3244,-24.32447 -24.3244,-66.17553 0,-90.5 24.3245,-24.32447 66.1756,-24.32448 90.5,0 l 22.625,-22.625 c -18.3847,-18.38478 -43.1262,-27.6 -67.875,-27.6 z"
       id="t_"
       inkscape:label="#t'"
       inkscape:connector-curvature="0" />
    <path
       style="fill:#000000;fill-opacity:1;stroke:none"
       d="m 5520,456.36218 c -52,10e-6 -96,44 -96,96 l 0,304 c 0,34.4 -29.6,64 -64,64 -34.4,0 -64,-29.6 -64,-64 l -32,0 c 0,34.4 -29.6,64 -64,64 -34.4,0 -64,-29.6 -64,-64 0,-34.4 29.6,-64 64,-64 l 0,-32 c -52,0 -96,44 -96,96 0,52.00002 44,96 96,96 32.922,0 62.6273,-17.63738 80,-43.775 17.3727,26.13762 47.078,43.775 80,43.775 52,0 96,-44 96,-96 l 0,-233.175 c 17.1341,15.55146 39.6928,25.175 64,25.175 52,0 96,-44 96,-96 0,-52 -44,-96 -96,-96 z m 0,32 c 34.4,10e-6 64,29.6 64,64 0,34.4 -29.6,64 -64,64 -34.4,1e-5 -64,-29.59999 -64,-64 0,-34.4 29.6,-64 64,-64 z"
       id="k"
       inkscape:connector-curvature="0" />
    <path
       style="fill:#000000;fill-opacity:1;stroke:none"
       d="m 7180,456.36218 c -52,10e-6 -96,44 -96,96 0,52 44,96 96,96 52,0 96,-44 96,-96 0,-34.4 29.6,-64 64,-64 34.4,10e-6 64,29.6 64,64 l 0,304 c 0,34.4 -29.6,64 -64,64 l -160,0 c -34.4,0 -64,-29.6 -64,-64 0,-34.40002 29.6,-64 64,-64 l 0,-32 c -52,1e-5 -96,43.99998 -96,96 0,52 44,96 96,96 l 160,0 c 52,0 96,-44 96,-96 l 0,-304 c 0,-52 -44,-96 -96,-96 -32.922,10e-6 -62.6273,17.6374 -80,43.775 -17.3727,-26.1376 -47.078,-43.775 -80,-43.775 z m 0,32 c 34.4,10e-6 64,29.6 64,64 0,34.4 -29.6,64 -64,64 -34.4,1e-5 -64,-29.59999 -64,-64 0,-34.4 29.6,-64 64,-64 z"
       id="kw"
       inkscape:connector-curvature="0" />
    <path
       id="path2998-3-5"
       style="fill:#000000;fill-opacity:1;stroke:none"
       d="m 428,648.36217 c -52,0 -96,-43.99999 -96,-95.99999 0,-52.00003 44,-96.00001 96,-96.00002 l 0,31.99999 c -34.4,0 -64,29.6 -64,64.00003 0,34.4 29.6,63.99999 64,63.99999 z"
       inkscape:connector-curvature="0"
       sodipodi:nodetypes="csccscc" />
    <path
       id="path2998-3-5-2"
       style="fill:#000000;fill-opacity:1;stroke:none"
       d="m 588,660.36217 c -52,0 -96,-43.99999 -96,-95.99999 l 32,0 c 0,34.4 29.6,63.99999 64,63.99999 z"
       inkscape:connector-curvature="0"
       sodipodi:nodetypes="ccccc" />
    <path
       id="path2998-3-2"
       style="fill:#000000;fill-opacity:1;stroke:none"
       d="m 803.99998,552.36219 c 10e-6,-34.40001 -29.59998,-64 -63.99999,-64.00001 -34.39999,0 -63.99999,29.6 -63.99999,64 0,34.40001 29.6,64.00001 64,64 l 0,32 c -52,0 -96,-44 -96,-96 0,-52 44,-95.99998 96,-95.99999 52,0 95.99999,43.99999 96,96 z"
       inkscape:connector-curvature="0"
       sodipodi:nodetypes="cssccsscc" />
    <path
       style="fill:#000000;fill-opacity:1;stroke:none"
       d="m 8192,439.33718 c -52,0 -96,44 -96,96 0,52 44,96 96,96 32.922,0 62.6273,-17.63739 80,-43.775 17.3727,26.13761 47.078,43.775 80,43.775 40.8474,0 76.7501,-27.14898 90.275,-64 l 69.725,0.025 -0.025,273.6 c -0.9186,33.698 -30.1211,62.37496 -63.9752,62.37496 -34.4,0 -64,-29.6 -64,-64 0,-34.4 29.6,-64 64,-64 l 0,-32 c -52,0 -96,44 -96,96 0,52 44,96 96,96 52,0 96,-44 96,-96 l -0.025,0 0.025,-304 -32,0 0,0.025 -96,-0.025 c 0,34.4 -29.6,64 -64,64 -34.4,0 -64,-29.6 -64,-64 l -32,0 c 0,34.4 -29.6,64 -64,64 -34.4,0 -64,-29.6 -64,-64 0,-34.4 29.6,-64 64,-64 l 0,-32 z"
       id="kw_"
       inkscape:label="#kw'"
       inkscape:connector-curvature="0" />
    <path
       style="fill:#000000;fill-opacity:1;stroke:none"
       d="m 9220,456.36218 c -52,10e-6 -96,44 -96,96 0,52 44,96 96,96 l 0,-32 c -34.4,1e-5 -64,-29.59999 -64,-64 0,-34.4 29.6,-64 64,-64 34.4,10e-6 64,29.6 64,64 0,52 44,96 96,96 24.3072,0 46.8659,-9.62354 64,-25.175 l 0,162.35 c -17.1341,-15.55144 -39.6928,-25.175 -64,-25.175 -52,1e-5 -96,44 -96,96 0,52 44,96 96,96 52,0 96,-44 96,-96 l 0,-304 -32,0 c 0,34.4 -29.6,64 -64,64 -34.4,0 -64,-29.6 -64,-64 0,-52 -44,-96 -96,-96 z m 160,336 c 34.4,1e-5 64,29.6 64,64 0,34.4 -29.6,64 -64,64 -34.4,0 -64,-29.59999 -64,-64 0,-34.4 29.6,-64 64,-64 z"
       id="q"
       inkscape:connector-curvature="0" />
    <path
       style="fill:#000000;fill-opacity:1;stroke:none"
       d="m 10240,456.36218 c -52,10e-6 -96,44 -96,96 0,52 44,96 96,96 l 0,-32 c -34.4,1e-5 -64,-29.59999 -64,-64 0,-34.4 29.6,-64 64,-64 34.4,10e-6 64,29.6 64,64 l 0,304 c 0,52.00001 44,96 96,96 32.922,0 62.627,-17.63738 80,-43.775 17.373,26.13762 47.078,43.775 80,43.775 52,0 96,-44 96,-96 0,-52 -44,-96 -96,-96 -52,1e-5 -96,44 -96,96 0,34.4 -29.6,64 -64,64 -34.4,0 -64,-29.6 -64,-64 l 0,-304 c 0,-52 -44,-96 -96,-96 z m 320,336 c 34.4,1e-5 64,29.6 64,64 0,34.4 -29.6,64 -64,64 -34.4,0 -64,-29.59999 -64,-64 0,-34.4 29.6,-64 64,-64 z"
       id="q_"
       inkscape:label="#q'"
       inkscape:connector-curvature="0" />
    <path
       style="fill:#000000;fill-opacity:1;stroke:none"
       d="m 11200,456.36218 c -52,10e-6 -96,44.00001 -96,96 0,52 44,96 96,96 34.4,0 64,28.12 64,60.8 0,32.68 -29.6,60.8 -64,60.8 l 0,30.4 c 34.4,0 64,28.12 64,60.8 0,32.68002 -29.6,60.8 -64,60.8 -34.4,0 -64,-28.11998 -64,-60.8 l -32,0 c 0,49.40002 44,91.2 96,91.2 52,0 96,-41.79998 96,-91.2 0,-31.26677 -17.625,-59.49387 -43.75,-76 26.125,-16.50612 43.75,-44.73322 43.75,-76 0,-31.5178 -17.903,-59.95155 -44.375,-76.4 26.469,-17.31472 44.375,-47.22575 44.375,-80.4 0,-52 -44,-96 -96,-96 z m 0,32 c 34.4,10e-6 64,29.6 64,64 0,34.4 -29.6,64 -64,64 -34.4,1e-5 -64,-29.59999 -64,-64 0,-34.39999 29.6,-64 64,-64 z"
       id="ts"
       inkscape:connector-curvature="0" />
    <path
       style="fill:#000000;fill-opacity:1;stroke:none"
       d="m 12200.012,456.36218 c -52,10e-6 -96,44.00001 -96,96 0,52 44,96 96,96 1.24,0 2.47,-0.0254 3.7,-0.075 32.792,1.25897 60.3,19.04265 60.3,39.6 0,21.328 -29.6,39.675 -64,39.675 l 0,19.85 0,0.15 c 34.4,0 64,18.34699 64,39.675 0,21.328 -29.6,39.675 -64,39.675 -51.956,0.0351 -95.9,27.30577 -95.9,59.525 0,32.24002 44,59.525 96,59.525 52,0 96,-27.28498 96,-59.525 l -32,0 c 0,21.328 -29.6,39.675 -64,39.675 -34.4,0 -64,-18.347 -64,-39.675 0,-21.30718 29.544,-39.63922 63.9,-39.675 52,0 96,-27.28499 96,-59.525 0,-20.47249 -17.758,-38.9176 -44.024,-49.675 26.266,-10.7574 44.024,-29.20251 44.024,-49.675 0,-21.92155 -20.356,-41.5563 -49.724,-51.875 29.37,-16.6423 49.724,-48.29061 49.724,-83.65004 0,-52 -44,-96 -96,-96 z m 0,32 c 34.4,10e-6 64,29.6 64,64 0,34.4 -29.6,64 -64,64 -34.4,1e-5 -64,-29.59999 -64,-64 0,-34.39999 29.6,-64 64,-64 z"
       id="ts_"
       inkscape:label="#ts'"
       inkscape:connector-curvature="0" />
    <path
       style="fill:#000000;fill-opacity:1;stroke:none"
       d="m 13232,456.36218 c -52,10e-6 -96,44.00001 -96,96 0,52 44,96 96,96 l 0,-32 c -34.4,1e-5 -64,-29.59999 -64,-64 0,-34.39999 29.6,-64 64,-64 34.4,10e-6 64,29.6 64,64 0,52 44,96 96,96 l 0,208 c 0,52 44,96 96,96 52,0 96,-44 96,-96 0,-52 -44,-96 -96,-96 l 0,32 c 34.4,0 64,29.6 64,64 0,34.4 -29.6,64 -64,64 -34.4,0 -64,-29.6 -64,-64 l 0,-208 64,0 c 52,0 96,-44 96,-96 0,-52 -44,-96 -96,-96 -52,0 -96,44 -96,96 l 0,64 c -34.4,0 -64,-29.6 -64,-64 0,-52 -44,-96 -96,-96 z m 256,32 c 34.4,0 64,29.6 64,64 0,34.4 -29.6,64 -64,64 l -64,0 0,-64 c 0,-34.4 29.6,-64 64,-64 z"
       id="ch"
       inkscape:connector-curvature="0" />
    <path
       style="fill:#000000;fill-opacity:1;stroke:none"
       d="m 14240,456.36218 c -52,10e-6 -96,44.00001 -96,96 0,52 44,96 96,96 32.922,0 62.627,-17.63739 80,-43.775 17.373,26.13761 47.078,43.775 80,43.775 52,0 96,-44 96,-96 0,-34.4 29.6,-64 64,-64 34.4,0 64,29.6 64,64 l 0,304 c 0,34.4 -29.6,64 -64,64 -34.4,0 -64,-29.6 -64,-64 l -32,0 c 0,52 44,96 96,96 52,0 96,-44 96,-96 l 0,-304 c 0,-52 -44,-96 -96,-96 -52,0 -96,44 -96,96 0,34.4 -29.6,64 -64,64 -34.4,0 -64,-29.6 -64,-64 0,-52 -44,-96 -96,-96 z m 0,32 c 34.4,10e-6 64,29.6 64,64 0,34.4 -29.6,64 -64,64 -34.4,1e-5 -64,-29.59999 -64,-64 0,-34.39999 29.6,-64 64,-64 z"
       id="ch_"
       inkscape:label="#ch'"
       inkscape:connector-curvature="0" />
    <path
       style="fill:#000000;fill-opacity:1;stroke:none"
       d="m 15220,456.36218 c -52,0 -96,44 -96,96 0,52 44,96 96,96 52,0 96,-44 96,-96 0,-34.4 29.6,-64 64,-64 34.4,0 64,29.6 64,64 l 0,304 c 0,34.4 -29.6,64 -64,64 -34.4,0 -64,-29.6 -64,-64 l -32,0 c 0,52 44,96 96,96 52,0 96,-44 96,-96 l 0,-304 c 0,-52 -44,-96 -96,-96 -52,0 -96,44 -96,96 0,34.4 -29.6,64 -64,64 -34.4,0 -64,-29.6 -64,-64 0,-34.4 29.6,-64 64,-64 l 0,-32 z"
       id="h"
       inkscape:connector-curvature="0" />
    <path
       style="fill:#000000;fill-opacity:1;stroke:none"
       d="m 16180,456.36218 c -52,0 -96,44 -96,96 0,52 44,96 96,96 32.922,0 62.627,-17.63739 80,-43.775 11.488,17.28348 28.363,30.84183 48,38.05 l 0,213.725 c 0,34.4 -29.6,64 -64,64 -34.4,0 -64,-29.6 -64,-64 0,-34.4 29.6,-64 64,-64 l 0,-32 c -52,0 -96,44 -96,96 0,52 44,96 96,96 52,0 96,-44 96,-96 l 0,-208 c 52,0 96,-44 96,-96 0,-52 0,-96 -64,-96 -36,0 -64,20 -64,52 l 0,44 0,54.975 c -18.898,-11.33469 -32,-32.09056 -32,-54.975 l -32,0 c 0,34.4 -29.6,64 -64,64 -34.4,0 -64,-29.6 -64,-64 0,-34.4 29.6,-64 64,-64 l 0,-32 z m 192,32 c 36,0 32,32 32,64 0,34.4 -29.6,64 -64,64 l 0,-64 0,-32 c 0,-16 12,-32 32,-32 z"
       id="glottalstop"
       inkscape:connector-curvature="0" />
    <path
       style="fill:#000000;fill-opacity:1;stroke:none"
       d="m 17240,152.36218 c -52,0 -96,44 -96,96 0,52 44,96 96,96 l 0,-32 c -34.4,0 -64,-29.6 -64,-64 0,-34.4 29.6,-64 64,-64 34.4,0 64,29.6 64,64 l 0,233.17504 c -17.134,-15.55168 -39.693,-25.17504 -64,-25.17504 -52,0 -96,44 -96,96 0,52 44,96 96,96 32.922,0 62.627,-17.63712 80,-43.77504 17.373,26.13784 47.078,43.77504 80,43.77504 32.922,0 62.627,-17.63712 80,-43.77504 17.373,26.13784 47.078,43.77504 80,43.77504 52,0 96,-44 96,-96 0,-52 -44,-96 -96,-96 l 0,32 c 34.4,0 64,29.6 64,64 0,34.4 -29.6,64 -64,64 -34.4,0 -64,-29.6 -64,-64 l -32,0 c 0,34.4 -29.6,64 -64,64 -34.4,0 -64,-29.6 -64,-64 l 0,-304 c 0,-52 -44,-96 -96,-96 z m 0,336 c 34.4,0 64,29.6 64,64 0,34.4 -29.6,64 -64,64 -34.4,0 -64,-29.6 -64,-64 0,-34.4 29.6,-64 64,-64 z"
       id="w"
       inkscape:connector-curvature="0" />
    <path
       style="fill:#000000;fill-opacity:1;stroke:none"
       d="m 18240,152.36218 c -52,1e-5 -96,44 -96,96 0,52 44,96 96,96 l 0,-32 c -34.4,10e-6 -64,-29.59999 -64,-64 0,-34.4 29.6,-64 64,-64 34.4,1e-5 64,29.6 64,64 l 0,304 c 0,52 44,96 96,96 32.922,0 62.627,-17.63739 80,-43.775 17.373,26.13761 47.078,43.775 80,43.775 52,0 96,-44 96,-96 0,-52 -44,-96 -96,-96 l 0,32 c 34.4,0 64,29.6 64,64 0,34.4 -29.6,64 -64,64 -34.4,0 -64,-29.6 -64,-64 l -32,0 c 0,34.4 -29.6,64 -64,64 -34.4,0 -64,-29.6 -64,-64 l 0,-304 c 0,-52 -44,-96 -96,-96 z"
       id="s"
       inkscape:connector-curvature="0" />
    <path
       style="fill:#000000;fill-opacity:1;stroke:none"
       d="m 19200.141,296.36218 c -52,10e-6 -96,44 -96,96 0,32.92202 17.637,62.62726 43.775,80 -26.138,17.37275 -43.775,47.07799 -43.775,80 0,52 44,96 96,96 24.722,0 47.637,-9.95278 64.875,-25.975 l -0.875,233.975 c 0,34.4 -29.6,64 -64,64 -34.4,0 -64,-29.6 -64,-64 0,-34.4 29.6,-64 64,-64 l 0,-32 c -52,0 -96,44 -96,96 0,52 44,96 96,96 52,0 96,-44 96,-96 l 1.124,-304 -1.124,0 -32,0 c 0,34.4 -29.6,64 -64,64 -34.4,0 -64,-29.6 -64,-64 0,-34.4 29.6,-64 64,-64 l 0,-32 c -34.4,10e-6 -64,-29.59999 -64,-64 0,-34.4 29.6,-64 64,-64 34.4,10e-6 64,29.6 64,64 l 32,0 c 0,-52 -44,-96 -96,-96 z"
       id="sh"
       inkscape:connector-curvature="0" />
    <path
       style="fill:#000000;fill-opacity:1;stroke:none"
       d="m 20200,456.36218 c -52,0 -96,44 -96,96 0,52 44,96 96,96 24.307,0 46.866,-9.62354 64,-25.175 l 0,233.175 c 0,34.4 -29.6,64 -64,64 -34.4,0 -64,-29.6 -64,-64 0,-34.4 29.6,-64 64,-64 l 0,-32 c -52,0 -96,44 -96,96 0,52 44,96 96,96 52,0 96,-44 96,-96 l 0,-304 -32,0 c 0,34.4 -29.6,64 -64,64 -34.4,0 -64,-29.6 -64,-64 0,-34.4 29.6,-64 64,-64 l 0,-32 z"
       id="y"
       inkscape:connector-curvature="0" />
    <path
       style="fill:#000000;fill-opacity:1;stroke:none"
       d="m 22300,456.36218 c -52,0 -96,44 -96,96 l 0,304 c 0,52 44,96 96,96 32.922,0 62.627,-17.63737 80,-43.775 17.373,26.13763 47.078,43.775 80,43.775 52,0 96,-43.99997 96,-96 0,-52 -44,-96 -96,-96 l 0,32 c 34.4,0 64,29.6 64,64 0,34.4 -29.6,64 -64,64 -34.4,0 -64,-29.6 -64,-64 l -32,0 c 0,34.4 -29.6,64 -64,64 -34.4,0 -64,-29.6 -64,-64 l 0,-304 c 0,-34.4 29.6,-64 64,-64 34.4,0 64,29.6 64,64 0,34.4 -29.6,64 -64,64 l 0,32 c 52,0 96,-44 96,-96 0,-52 -44,-96 -96,-96 z"
       id="n"
       inkscape:connector-curvature="0" />
    <path
       style="fill:#000000;fill-opacity:1;stroke:none"
       d="m 23196,456.36218 c -52,10e-6 -96,44 -96,96 0,52 44,96 96,96 32.922,0 62.627,-17.63739 80,-43.775 17.373,26.13761 47.078,43.775 80,43.775 52,0 96,-44 96,-96 0,-34.4 29.6,-64 64,-64 34.4,0 64,29.6 64,64 l 0,304 c 0,34.4 -29.6,64 -64,64 -34.4,0 -64,-29.6 -64,-64 0,-34.4 29.6,-64 64,-64 l 0,-32 c -52,0 -96,44 -96,96 0,52 44,96 96,96 52,0 96,-44 96,-96 l 0,-304 c 0,-52 -44,-96 -96,-96 -52,0 -96,44 -96,96 0,34.4 -29.6,64 -64,64 -34.4,0 -64,-29.6 -64,-64 0,-52 -44,-96 -96,-96 z m 0,32 c 34.4,10e-6 64,29.6 64,64 0,34.4 -29.6,64 -64,64 -34.4,1e-5 -64,-29.59999 -64,-64 0,-34.4 29.6,-64 64,-64 z"
       id="r"
       inkscape:connector-curvature="0" />
    <path
       style="fill:#000000;fill-opacity:1;stroke:none"
       d="m 24380,152.36218 c -52,1e-5 -96,44 -96,96 l 0,304 c 0,34.4 -29.6,64 -64,64 -34.4,0 -64,-29.6 -64,-64 0,-34.4 29.6,-64 64,-64 l 0,-32 c -52,0 -96,44 -96,96 0,52 44,96 96,96 52,0 96,-44 96,-96 l 0,-233.175 c 17.134,15.55146 39.693,25.175 64,25.175 52,0 96,-44 96,-96 0,-52 -44,-96 -96,-96 z m 0,32 c 34.4,1e-5 64,29.6 64,64 0,34.4 -29.6,64 -64,64 -34.4,10e-6 -64,-29.59999 -64,-64 0,-34.4 29.6,-64 64,-64 z"
       id="l"
       inkscape:connector-curvature="0" />
    <path
       style="fill:#000000;fill-opacity:1;stroke:none"
       d="m 25560,152.36218 c -52,1e-5 -96,44 -96,96 0,52 44,96 96,96 l 0,-32 c -34.4,10e-6 -64,-29.59999 -64,-64 0,-34.4 29.6,-64 64,-64 34.4,1e-5 64,29.6 64,64 l 0,304 c 0,34.4 -29.6,64 -64,64 -34.4,0 -64,-29.6 -64,-64 0,-52 -44,-96 -96,-96 -32.922,0 -62.627,17.6374 -80,43.775 -17.373,-26.1376 -47.078,-43.775 -80,-43.775 -52,10e-6 -96,44 -96,96 0,52 44,96 96,96 52,0 96,-44 96,-96 0,-34.4 29.6,-64 64,-64 34.4,0 64,29.6 64,64 0,52 44,96 96,96 52,0 96,-44 96,-96 l 0,-304 c 0,-52 -44,-96 -96,-96 z m -320,336 c 34.4,10e-6 64,29.6 64,64 0,34.4 -29.6,64 -64,64 -34.4,1e-5 -64,-29.59999 -64,-64 0,-34.4 29.6,-64 64,-64 z"
       id="hl"
       inkscape:connector-curvature="0" />
    <path
       style="fill:#000000;fill-opacity:1;stroke:none"
       d="m 26280,152.36218 c -52,1e-5 -96,44 -96,96 0,52 44,96 96,96 l 0,-32 c -34.4,10e-6 -64,-29.59999 -64,-64 0,-34.4 29.6,-64 64,-64 34.4,1e-5 64,29.6 64,64 l 0,233.175 c -17.134,-15.55144 -39.693,-25.175 -64,-25.175 -52,10e-6 -96,44 -96,96 0,52 44,96 96,96 52,0 96,-44 96,-96 0,-34.4 29.6,-64 64,-64 34.4,0 64,29.6 64,64 l 32,0 c 0,-34.4 29.6,-64 64,-64 34.4,0 64,29.6 64,64 0,34.4 -29.6,64 -64,64 l 0,32 c 52,0 96,-44 96,-96 0,-52 -44,-96 -96,-96 -32.922,0 -62.627,17.6374 -80,43.775 -17.373,-26.1376 -47.078,-43.775 -80,-43.775 -24.307,0 -46.866,9.62355 -64,25.175 l 0,-233.175 c 0,-52 -44,-96 -96,-96 z m 0,336 c 34.4,10e-6 64,29.6 64,64 0,34.4 -29.6,64 -64,64 -34.4,1e-5 -64,-29.59999 -64,-64 0,-34.4 29.6,-64 64,-64 z"
       id="tl"
       inkscape:connector-curvature="0" />
    <path
       style="fill:#000000;fill-opacity:1;stroke:none"
       d="m 27220,456.36218 c -52,0 -96,44 -96,96 0,52 44,96 96,96 32.922,0 62.627,-17.63739 80,-43.775 17.373,26.13761 47.078,43.775 80,43.775 52,0 96,-44 96,-96 0,-52 -44,-96 -96,-96 l 0,32 c 34.4,0 64,29.6 64,64 0,34.4 -29.6,64 -64,64 -34.4,0 -64,-29.6 -64,-64 l -32,0 c 0,34.4 -29.6,64 -64,64 -34.4,0 -64,-29.6 -64,-64 0,-34.4 29.6,-64 64,-64 l 0,-32 z"
       id="aa"
       inkscape:connector-curvature="0" />
    <path
       style="fill:#000000;fill-opacity:1;stroke:none"
       d="m 28220,456.36218 c -52,0 -96,44 -96,96 0,52 44,96 96,96 32.922,0 62.627,-17.63739 80,-43.775 17.373,26.13761 47.078,43.775 80,43.775 24.307,0 46.866,-9.62354 64,-25.175 l 0,146.35 c -17.134,-15.55144 -39.693,-25.175 -64,-25.175 -52,1e-5 -96,44 -96,96 0,52.00003 44,96 96,96 52,0 96,-43.99998 96,-96 l 0,-288 -32,0 c 0,34.4 -29.6,64 -64,64 -34.4,0 -64,-29.6 -64,-64 l -32,0 c 0,34.4 -29.6,64 -64,64 -34.4,0 -64,-29.6 -64,-64 0,-34.4 29.6,-64 64,-64 l 0,-32 z m 160,320 c 34.4,1e-5 64,29.6 64,64 0,34.40002 -29.6,64 -64,64 -34.4,0 -64,-29.59997 -64,-64 0,-34.4 29.6,-64 64,-64 z"
       id="an"
       inkscape:connector-curvature="0" />
    <path
       style="fill:#000000;fill-opacity:1;stroke:none"
       d="m 29200,456.36218 c -52,10e-6 -96,44 -96,96 0,52 44,96 96,96 l 0,-32 c -34.4,1e-5 -64,-29.59999 -64,-64 0,-34.4 29.6,-64 64,-64 34.4,10e-6 64,29.6 64,64 l 20.8,0 11.2,0 c 0,-52 -44,-96 -96,-96 z"
       id="i"
       inkscape:connector-curvature="0" />
    <path
       style="fill:#000000;fill-opacity:1;stroke:none"
       d="m 30240,456.36218 c -52,0 -96,44 -96,96 0,52 44,96 96,96 32.922,0 62.627,-17.63739 80,-43.775 17.373,26.13761 47.078,43.775 80,43.775 24.246,0 46.757,-9.56768 63.875,-25.05 l 0.125,233.05 c 0,52 44,96 96,96 52,0 96,-44 96,-96 0,-52 -44,-96 -96,-96 l 0,32 c 34.4,0 64,29.6 64,64 0,34.4 -29.6,64 -64,64 -34.4,0 -64,-29.6 -64,-64 l -0.175,-298.4 c 0.113,-1.85638 0.175,-3.72102 0.175,-5.6 l -0.175,0 -31.825,0 -0.175,0 0,4.45 c -2.416,32.46115 -30.92,59.55 -63.825,59.55 -34.4,0 -64,-29.6 -64,-64 l -32,0 c 0,34.4 -29.6,64 -64,64 -34.4,0 -64,-29.6 -64,-64 0,-34.4 29.6,-64 64,-64 l 0,-32 z"
       id="ii"
       inkscape:connector-curvature="0" />
    <path
       style="fill:#000000;fill-opacity:1;stroke:none"
       d="m 31260,456.36218 c -52,0 -96,44 -96,96 0,52 44,96 96,96 32.922,0 62.627,-17.63739 80,-43.775 17.373,26.13761 47.078,43.775 80,43.775 24.307,0 46.866,-9.62354 64,-25.175 l 0,233.175 c 0,52.00002 44,96 96,96 32.922,0 62.627,-17.63737 80,-43.775 17.373,26.13762 47.078,43.775 80,43.775 52,0 96,-44 96,-96 0,-52 -44,-96 -96,-96 -52,1e-5 -96,44 -96,96 0,34.40002 -29.6,64 -64,64 -34.4,0 -64,-29.59998 -64,-64 l 0,-304 -32,0 c 0,34.4 -29.6,64 -64,64 -34.4,0 -64,-29.6 -64,-64 l -32,0 c 0,34.4 -29.6,64 -64,64 -34.4,0 -64,-29.6 -64,-64 0,-34.4 29.6,-64 64,-64 l 0,-32 z m 480,336 c 34.4,1e-5 64,29.6 64,64 0,34.4 -29.6,64 -64,64 -34.4,0 -64,-29.59999 -64,-64 0,-34.4 29.6,-64 64,-64 z"
       id="in"
       inkscape:connector-curvature="0" />
    <path
       style="fill:#000000;fill-opacity:1;stroke:none"
       d="m 32200,456.36218 c -52,10e-6 -96,44 -96,96 0,52 44,96 96,96 l 0,-32 c -34.4,1e-5 -64,-29.59999 -64,-64 0,-34.4 29.6,-64 64,-64 34.4,10e-6 64,29.6 64,64 l 0,233.175 c -17.134,-15.55144 -39.693,-25.175 -64,-25.175 -52,1e-5 -96,44 -96,96 0,52 44,96 96,96 52,0 96,-44 96,-96 l 0,-304 c 0,-52 -44,-96 -96,-96 z m 0,336 c 34.4,1e-5 64,29.6 64,64 0,34.4 -29.6,64 -64,64 -34.4,0 -64,-29.59999 -64,-64 0,-34.4 29.6,-64 64,-64 z"
       id="u"
       inkscape:connector-curvature="0" />
    <path
       style="fill:#000000;fill-opacity:1;stroke:none"
       d="m 33240,456.36218 c -52,10e-6 -96,44 -96,96 0,52 44,96 96,96 l 0,-32 c -34.4,1e-5 -64,-29.59999 -64,-64 0,-34.4 29.6,-64 64,-64 34.4,10e-6 64,29.6 64,64 l 32,0 c 0,-34.4 29.6,-64 64,-64 34.4,0 64,29.6 64,64 l 0,304 c 0,52 44,96 96,96 52,0 96,-44 96,-96 0,-52 -44,-96 -96,-96 l 0,32 c 34.4,0 64,29.6 64,64 0,34.4 -29.6,64 -64,64 -34.4,0 -64,-29.6 -64,-64 l 0,-304 c 0,-52 -44,-96 -96,-96 -32.922,0 -62.627,17.6374 -80,43.775 -17.373,-26.1376 -47.078,-43.775 -80,-43.775 z"
       id="uu"
       inkscape:connector-curvature="0" />
    <path
       style="fill:#000000;fill-opacity:1;stroke:none"
       d="m 34260,456.36218 c -52,10e-6 -96,44 -96,96 0,52 44,96 96,96 l 0,-32 c -34.4,1e-5 -64,-29.59999 -64,-64 0,-34.4 29.6,-64 64,-64 34.4,10e-6 64,29.6 64,64 l 32,0 c 0,-34.4 29.6,-64 64,-64 34.4,0 64,29.6 64,64 l 0,304 c 0,52.00001 44,96 96,96 32.922,0 62.627,-17.63738 80,-43.775 17.373,26.13762 47.078,43.775 80,43.775 52,0 96,-44 96,-96 0,-52 -44,-96 -96,-96 -52,1e-5 -96,44 -96,96 0,34.40001 -29.6,64 -64,64 -34.4,0 -64,-29.59999 -64,-64 l 0,-304 c 0,-52 -44,-96 -96,-96 -32.922,0 -62.627,17.6374 -80,43.775 -17.373,-26.1376 -47.078,-43.775 -80,-43.775 z m 480,336 c 34.4,1e-5 64,29.6 64,64 0,34.4 -29.6,64 -64,64 -34.4,0 -64,-29.59999 -64,-64 0,-34.4 29.6,-64 64,-64 z"
       id="un"
       inkscape:connector-curvature="0" />
    <path
       style="fill:#000000;fill-opacity:1;stroke:none"
       d="m 35200,456.36218 0,32 c 34.4,0 64,29.6 64,64 0,34.4 -29.6,64 -64,64 -34.4,0 -64,-29.6 -64,-64 l -32,0 c 0,52 44,96 96,96 52,0 96,-44 96,-96 0,-52 -44,-96 -96,-96 z"
       id="alig"
       inkscape:connector-curvature="0" />
    <path
       style="fill:#000000;fill-opacity:1;stroke:none"
       d="m 6220,456.36218 c -52,10e-6 -96,44.00001 -96,96 0,52 44,96 96,96 l 160,0 c 34.4,0 64,29.6 64,64 l 0,144 c 0,34.4 -29.6,64 -64,64 -34.4,0 -64,-29.6 -64,-64 l -32,0 c 0,34.4 -29.6,64 -64,64 -34.4,0 -64,-29.6 -64,-64 0,-34.4 29.6,-64 64,-64 l 0,-32 c -52,0 -96,44 -96,96 0,52 44,96 96,96 32.922,0 62.6273,-17.63738 80,-43.775 17.3727,26.13762 47.078,43.775 80,43.775 52,0 96,-44 96,-96 l 0,-144 c 0,-52 -44,-96 -96,-96 l -160,0 c -34.4,1e-5 -64,-29.59999 -64,-64 0,-34.39999 29.6,-64 64,-64 34.4,10e-6 64,29.6 64,64 l 32,0 c 0,-52 -44,-96 -96,-96 z"
       id="k_"
       inkscape:label="#k'"
       inkscape:connector-curvature="0" />
    <path
       style="fill:#000000;fill-opacity:1;stroke:none"
       d="m 36200,456.36218 c -52,10e-6 -96,44 -96,96 0,52 44,96 96,96 52,0 96,-44 96,-96 0,-52 -44,-96 -96,-96 z m 0,32 c 34.4,10e-6 64,29.6 64,64 0,34.4 -29.6,64 -64,64 -34.4,1e-5 -64,-29.59999 -64,-64 0,-34.4 29.6,-64 64,-64 z"
       id="novowel"
       inkscape:connector-curvature="0" />
    <path
       id="a"
       style="fill:#000000;fill-opacity:1;stroke:none"
       d="m 37204,152.36218 c -52,0 -96,44 -96,96 0,52 44,96 96,96 24.307,0 46.866,-9.636 64,-25.1875 l 0,233.1875 c 0,34.4 -29.6,64 -64,64 -34.4,0 -64,-29.6 -64,-64 0,-34.4 29.6,-64 64,-64 l 0,-32 c -52,0 -96,44 -96,96 0,52 44,96 96,96 52,0 96,-44 96,-96 l 0,-304 c 0,-52 -44,-96 -96,-96 z m 0,32 c 34.4,0 64,29.6 64,64 0,34.4 -29.6,64 -64,64 -34.4,0 -64,-29.6 -64,-64 0,-34.4 29.6,-64 64,-64 z"
       inkscape:connector-curvature="0" />
    <path
       style="fill:#000000;fill-opacity:1;stroke:none"
       d="m 21188,456.36218 c -52,10e-6 -96,44 -96,96 0,32.92202 17.638,62.62726 43.775,80 -26.137,17.37274 -43.775,47.07797 -43.775,80 0,52 44,96 96,96 l 80,0 c 52,0 96,-44 96,-96 l 0,-160 c 0,-34.4 29.6,-64 64,-64 34.4,0 64,29.6 64,64 0,34.4 -29.6,64 -64,64 l 0,32 c 52,0 96,-44 96,-96 0,-52 -44,-96 -96,-96 -52,0 -96,44 -96,96 l 0,160 c 0,34.4 -29.6,64 -64,64 l -80,0 c -34.4,0 -64,-29.6 -64,-64 0,-34.40002 29.6,-64 64,-64 l 0,-32 c -34.4,1e-5 -64,-29.59999 -64,-64 0,-34.4 29.6,-64 64,-64 34.4,10e-6 64,29.59999 64,64 l 32,0 c 0,-52.00001 -44,-96 -96,-96 z"
       id="m"
       inkscape:connector-curvature="0" />
    <path
       id="st"
       style="fill:#000000;fill-opacity:1;stroke:none"
       d="m 18240,-847.63782 c -52,0 -96,44 -96,96 0,52 44,96 96,96 l 0,-32 c -34.4,0 -64,-29.6 -64,-64 0,-34.4 29.6,-64 64,-64 34.4,0 64,29.6 64,64 l 0,304 c 0,52 44,96 96,96 32.922,0 62.627,-17.6374 80,-43.775 17.373,26.1376 47.078,43.775 80,43.775 24.307,0 46.866,-9.62354 64,-25.175 l 0,233.175 c 0,34.4 -29.6,64 -64,64 -34.4,0 -64,-29.6 -64,-64 l -32,0 c 0,34.4 -29.6,64 -64,64 -34.4,0 -64,-29.6 -64,-64 0,-34.4 29.6,-64 64,-64 l 0,-32 c -52,0 -96,44 -96,96 0,52 44,96 96,96 32.922,0 62.627,-17.637392 80,-43.775 17.373,26.137608 47.078,43.775 80,43.775 52,0 96,-44 96,-96 l 0,-304 c 0,-52 -44,-96 -96,-96 -52,0 -96,44 -96,96 0,34.4 -29.6,64 -64,64 -34.4,0 -64,-29.6 -64,-64 l 0,-304 c 0,-52 -44,-96 -96,-96 z m 320,336 c 34.4,0 64,29.6 64,64 0,34.4 -29.6,64 -64,64 -34.4,0 -64,-29.6 -64,-64 0,-34.4 29.6,-64 64,-64 z"
       inkscape:connector-curvature="0" />
    <path
       id="doubledconsonant"
       style="fill:#000000;fill-opacity:1;stroke:none"
       d="m 38200,152.36218 c -52,0 -96,44 -96,96 0,52 44,96 96,96 52,0 96,-44 96,-96 0,-52 -44,-96 -96,-96 z m 0,32 c 34.4,0 64,29.6 64,64 0,34.4 -29.6,64 -64,64 -34.4,0 -64,-29.6 -64,-64 0,-34.4 29.6,-64 64,-64 z m 0,272 c -52,0 -96,44 -96,96 0,52 44,96 96,96 52,0 96,-44 96,-96 0,-52 -44,-96 -96,-96 z m 0,32 c 34.4,0 64,29.6 64,64 0,34.4 -29.6,64 -64,64 -34.4,0 -64,-29.6 -64,-64 0,-34.4 29.6,-64 64,-64 z"
       inkscape:connector-curvature="0" />
    <path
       id="tl_"
       style="fill:#000000;fill-opacity:1;stroke:none"
       d="m 26281,-847.63782 c -52,1e-5 -96,44 -96,96 0,52 44,96 96,96 l 0,-32 c -34.4,1e-5 -64,-29.59999 -64,-64 0,-34.4 29.6,-64 64,-64 34.4,1e-5 64,29.6 64,64 l 0,233.1875 c -17.134,-15.55144 -39.693,-25.1875 -64,-25.1875 -52,1e-5 -96,44 -96,96 0,52 44,96 96,96 52,0 96,-44 96,-96 0,-34.4 29.6,-64 64,-64 34.4,0 64,29.6 64,64 l 32,0 c 0,-34.4 29.6,-64 64,-64 34.4,0 64,29.6 64,64 0,34.4 -29.6,64 -64,64 -52,0 -96,43.9999 -96,96 0,52 44,96 96,96 52,0 96,-44 96,-96 0,-32.91845 -17.648,-62.62647 -43.781,-80 26.133,-17.37355 43.781,-47.08162 43.781,-80 0,-52 -44,-96 -96,-96 -32.922,0 -62.627,17.64365 -80,43.78125 -17.373,-26.1376 -47.078,-43.78125 -80,-43.78125 -24.307,0 -46.866,9.63605 -64,25.1875 l 0,-233.1875 c 0,-52 -44,-96 -96,-96 z m 0,336 c 34.4,10e-6 64,29.6 64,64 0,34.4 -29.6,64 -64,64 -34.4,10e-6 -64,-29.59999 -64,-64 0,-34.4 29.6,-64 64,-64 z m 320,160 c 34.4,0 64,29.6 64,64 0,34.4 -29.6,64 -64,64 -34.4,0 -64,-29.6 -64,-64 0,-34.4 29.6,-64 64,-64 z"
       inkscape:connector-curvature="0" />
    <path
       id="path2998-3-6"
       style="fill:#000000;fill-opacity:1;stroke:none"
       d="m 26132,-1107.6378 c 0,34.4 29.6,64 64,63.9999 34.4,0 64,-29.5999 64,-63.9999 0,-34.4 -29.6,-64 -64,-64 -34.4,0 -64,29.6 -64,64 z m -32,0 c 0,-52 44,-96 96,-96 52,0 96,44 96,96 0,52 -44,96 -96,96 -52,0 -96,-44.0001 -96,-96 z"
       inkscape:connector-curvature="0"
       sodipodi:nodetypes="ssssssssss" />
    <path
       id="path2998-3-5-7"
       style="fill:#000000;fill-opacity:1;stroke:none"
       d="m 26464,-1011.6378 c -52,0 -96,-44 -96,-96 0,-52.0001 44,-96 96,-96 l 0,32 c -34.4,0 -64,29.6 -64,64 0,34.4 29.6,63.9999 64,63.9999 z"
       inkscape:connector-curvature="0"
       sodipodi:nodetypes="csccscc" />
    <path
       id="path2998-3-5-2-5"
       style="fill:#000000;fill-opacity:1;stroke:none"
       d="m 26624,-999.63785 c -52,0 -96,-43.99995 -96,-95.99995 l 32,0 c 0,34.4 29.6,63.9999 64,63.9999 z"
       inkscape:connector-curvature="0"
       sodipodi:nodetypes="ccccc" />
    <path
       id="path2998-3-2-3"
       style="fill:#000000;fill-opacity:1;stroke:none"
       d="m 26840,-1107.6378 c 0,-34.4 -29.6,-64 -64,-64 -34.4,0 -64,29.6 -64,64 0,34.4 29.6,64 64,64 l 0,32 c -52,0 -96,-44 -96,-96 0,-52 44,-96 96,-96 52,0 96,44 96,96 z"
       inkscape:connector-curvature="0"
       sodipodi:nodetypes="cssccsscc" />
  </g>
</svg>
